<?xml version="1.0" encoding="iso-8859-1"?>
<!-- Generator: Adobe Illustrator 19.0.0, SVG Export Plug-In . SVG Version: 6.00 Build 0)  -->
<svg version="1.1" id="Layer_1" xmlns="http://www.w3.org/2000/svg" xmlns:xlink="http://www.w3.org/1999/xlink" x="0px" y="0px"
	 viewBox="0 0 511.904 511.904" style="enable-background:new 0 0 511.904 511.904;" xml:space="preserve">
<g>
	<path style="fill:#E21B1B;" d="M59.328,450.568V196.624C59.328,88.48,147.808,0,255.952,0l0,0
		c108.144,0,196.624,88.48,196.624,196.624v253.952H59.328V450.568z"/>
	<polyline style="fill:#E21B1B;" points="108.488,450.568 59.328,511.904 59.328,450.568 108.488,450.568 	"/>
	<polyline style="fill:#E21B1B;" points="403.416,450.568 452.576,511.904 452.576,450.568 403.416,450.568 	"/>
	<polygon style="fill:#E21B1B;" points="157.64,511.904 206.8,450.568 108.488,450.568 	"/>
	<polygon style="fill:#E21B1B;" points="255.952,511.904 305.104,450.568 206.8,450.568 	"/>
	<polygon style="fill:#E21B1B;" points="354.264,511.904 403.416,450.568 305.104,450.568 	"/>
</g>
<rect x="261.211" y="312.664" transform="matrix(-0.9999 0.0137 -0.0137 -0.9999 637.2878 636.9621)" width="110.503" height="16"/>
<circle cx="261.2" cy="178.328" r="28.544"/>
<circle cx="378.672" cy="178.328" r="28.544"/>
<g>
</g>
<g>
</g>
<g>
</g>
<g>
</g>
<g>
</g>
<g>
</g>
<g>
</g>
<g>
</g>
<g>
</g>
<g>
</g>
<g>
</g>
<g>
</g>
<g>
</g>
<g>
</g>
<g>
</g>
</svg>
